# xmcd
#
# Track frame offsets:
#	150
#	19721
#	39970
#	55660
#	63213
#	87037
#	106633
#	125753
#	143855
#	161300
#	181978
#	197006
#	213485
#	232592
#	251452
#	271583
#	293595
#	311571
#	330286
#
# Disc length: 4739
#
# Revision: 1
# Processed by: cddbd v1.5.1PL0 Copyright (c) Steve Scherf et al.
# Submitted via: EasyCDDAExtractor 8.0.2.1
# Normalized: r0:DSETVAR1
#
DISCID=ea128113
DTITLE=Various Artist - Best Of
DYEAR=1900
DGENRE=
TTITLE0=Brian McKnight and Rachelle Ferr - Moody's Mood For Love
TTITLE1=Brian McKnight - Once Again
TTITLE2=Brian McKnight - Christmas tiime is here
TTITLE3=Brian McKnight - Niko's Lullaby
TTITLE4=Brian McKnight - Marilie
TTITLE5=Brian McKnight - Discovery
TTITLE6=Brian McKnight - Don't let me go
TTITLE7=Brian McKnight - Have Yourself A Merry Little C
TTITLE8=Brian McKnight - Hold Me (live)
TTITLE9=Brian McKnight - Lately (live)
TTITLE10=Brian McKnight - Home for the Holidays
TTITLE11=Brian McKnight - The First Noel
TTITLE12=Brian Mcknight - Win (Movie Mix)
TTITLE13=Brian McKnight and BeBe Winans and - Coming Back Home feat Brian McKnight Joe
TTITLE14=Brian McKnight - Could
TTITLE15=Brian McKnight - One Last Cry
TTITLE16=Brian McKnight - Still In Love
TTITLE17=Brian McKnight - Every Beat Of My Heart
TTITLE18=Brian McKnight - Never Felt This Way
EXTD=
EXTT0=
EXTT1=
EXTT2=
EXTT3=
EXTT4=
EXTT5=
EXTT6=
EXTT7=
EXTT8=
EXTT9=
EXTT10=
EXTT11=
EXTT12=
EXTT13=
EXTT14=
EXTT15=
EXTT16=
EXTT17=
EXTT18=
PLAYORDER=
